<svg width="150" height="25" viewBox="0 0 150 25" fill="none" xmlns="http://www.w3.org/2000/svg">
<g clip-path="url(#clip0_2066_72837)">
<path d="M32.7893 19.4235L19.7225 1.47365C19.0067 0.489994 17.8705 -0.0230968 16.7267 1.5398e-05C15.5848 -0.0221723 14.4514 0.490918 13.7365 1.47272L0.669749 19.4235C-0.482484 21.0062 -0.110948 23.2084 1.49936 24.3409C2.13144 24.7855 2.8604 24.9991 3.58278 24.9991C4.70115 24.9991 5.80259 24.4869 6.5024 23.5255L15.7682 10.7971C16.2395 10.15 17.2186 10.15 17.6908 10.7971L26.9566 23.5255C27.6565 24.4869 28.7579 24.9991 29.8763 24.9991C30.5986 24.9991 31.3276 24.7855 31.9597 24.3409C33.57 23.2084 33.9415 21.0062 32.7893 19.4235Z" fill="#3E50F7"/>
<path d="M17.3819 24.9326C19.6001 24.5787 21.1065 22.5244 20.7464 20.3442C20.3863 18.1639 18.2962 16.6834 16.078 17.0373C13.8598 17.3912 12.3534 19.4455 12.7135 21.6258C13.0736 23.806 15.1637 25.2865 17.3819 24.9326Z" fill="#3E50F7"/>
<path d="M51.8046 6.90129V19.4244H48.157V18.1717C47.1825 19.1535 45.8591 19.7184 44.3099 19.7184C40.8128 19.7184 38.1641 16.895 38.1641 13.1628C38.1641 9.43069 40.8118 6.6073 44.3099 6.6073C45.8591 6.6073 47.1825 7.17216 48.157 8.15397V6.90129H51.8046ZM48.157 13.1628C48.157 11.3952 46.8326 10.0686 45.0342 10.0686C43.2358 10.0686 41.9368 11.3943 41.9368 13.1628C41.9368 14.9314 43.2612 16.2571 45.0342 16.2571C46.8072 16.2571 48.157 14.9314 48.157 13.1628Z" fill="#25224A"/>
<path d="M52.9287 13.1628C52.9287 9.43069 55.8765 6.6073 59.7988 6.6073C62.3723 6.6073 64.5206 7.81006 65.6945 9.7256L62.5219 11.6162C61.997 10.6834 60.9981 10.0695 59.7988 10.0695C58.0004 10.0695 56.6761 11.3952 56.6761 13.1638C56.6761 14.9323 58.0004 16.258 59.7988 16.258C60.9981 16.258 61.997 15.6442 62.5219 14.7114L65.6945 16.6019C64.5206 18.5175 62.3723 19.7202 59.7988 19.7202C55.8765 19.7202 52.9287 16.8968 52.9287 13.1647V13.1628Z" fill="#25224A"/>
<path d="M79.622 6.90129V24.0894H75.9744V18.1717C74.9999 19.1535 73.6765 19.7184 72.1273 19.7184C68.6302 19.7184 65.9814 16.895 65.9814 13.1628C65.9814 9.43069 68.6292 6.6073 72.1273 6.6073C73.6765 6.6073 74.9999 7.17216 75.9744 8.15397V6.90129H79.622ZM75.9744 13.1628C75.9744 11.3952 74.65 10.0686 72.8516 10.0686C71.0532 10.0686 69.7542 11.3943 69.7542 13.1628C69.7542 14.9314 71.0786 16.2571 72.8516 16.2571C74.6246 16.2571 75.9744 14.9314 75.9744 13.1628Z" fill="#25224A"/>
<path d="M81.5449 14.4156V6.90137H85.1926V13.9238C85.1926 15.3235 86.1416 16.2563 87.5657 16.2563C88.9898 16.2563 89.9388 15.3235 89.9388 13.9238V6.90137H93.5865V14.4147C93.5865 17.6069 91.2133 19.7185 87.5657 19.7185C83.9181 19.7185 81.5449 17.6069 81.5449 14.4147V14.4156Z" fill="#25224A"/>
<path d="M95.1094 3.09613C95.1094 1.84345 96.0838 0.910645 97.3574 0.910645C98.631 0.910645 99.6308 1.84345 99.6308 3.09613C99.6308 4.34881 98.6564 5.30566 97.3574 5.30566C96.0584 5.30566 95.1094 4.37285 95.1094 3.09613ZM95.5345 6.90225H99.1822V19.4244H95.5345V6.90133V6.90225Z" fill="#25224A"/>
<path d="M108.974 6.70539V10.3886H108.425C106.201 10.3886 104.978 11.6412 104.978 13.5808V19.4245H101.33V6.90138H104.978V8.3251C105.877 7.29429 107.052 6.70447 108.425 6.70447H108.974V6.70539Z" fill="#25224A"/>
<path d="M122.747 14.3416H113.253C113.703 15.7413 114.928 16.6002 116.526 16.6002C117.975 16.6002 119.124 15.9373 119.724 15.2005L122.172 17.288C120.823 18.7856 118.775 19.7185 116.426 19.7185C112.379 19.7185 109.331 16.8701 109.331 13.089C109.331 9.3078 112.253 6.60645 116.126 6.60645C119.998 6.60645 122.821 9.40579 122.821 13.2119C122.821 13.5558 122.796 14.0218 122.746 14.3416H122.747ZM113.229 11.9602H118.95C118.55 10.5605 117.45 9.70163 116.077 9.70163C114.704 9.70163 113.604 10.5854 113.229 11.9602Z" fill="#25224A"/>
<path d="M123.258 18.5526C123.258 17.9998 123.695 17.5708 124.257 17.5708C124.818 17.5708 125.256 18.0007 125.256 18.5526C125.256 19.1045 124.83 19.5224 124.257 19.5224C123.683 19.5224 123.258 19.1055 123.258 18.5526Z" fill="#25224A"/>
<path d="M125.645 16.2932C125.645 14.4276 127.106 13.0159 129.054 13.0159C130.328 13.0159 131.403 13.6297 131.977 14.5746L130.765 15.2994C130.427 14.7225 129.804 14.3416 129.054 14.3416C127.93 14.3416 127.081 15.1884 127.081 16.2932C127.081 17.3979 127.93 18.2448 129.054 18.2448C129.804 18.2448 130.428 17.8639 130.765 17.287L131.977 18.0118C131.402 18.9566 130.328 19.5705 129.054 19.5705C127.105 19.5705 125.645 18.1588 125.645 16.2923V16.2932Z" fill="#25224A"/>
<path d="M132.252 16.2932C132.252 14.4276 133.714 13.0159 135.662 13.0159C137.61 13.0159 139.071 14.4276 139.071 16.2932C139.071 18.1588 137.597 19.5714 135.662 19.5714C133.726 19.5714 132.252 18.1597 132.252 16.2932ZM137.623 16.2932C137.623 15.1884 136.786 14.3416 135.662 14.3416C134.538 14.3416 133.688 15.1884 133.688 16.2932C133.688 17.3979 134.538 18.2448 135.662 18.2448C136.786 18.2448 137.623 17.3979 137.623 16.2932Z" fill="#25224A"/>
<path d="M150 15.3604V19.4235H148.601V15.7653C148.601 14.9055 148.052 14.3416 147.19 14.3416C146.329 14.3416 145.679 14.9184 145.679 15.7902V19.4244H144.28V15.7662C144.28 14.9064 143.731 14.3425 142.868 14.3425C142.006 14.3425 141.357 14.9194 141.357 15.7912V19.4253H139.958V13.1647H141.357V13.9015C141.832 13.3246 142.506 13.0177 143.33 13.0177C144.267 13.0177 144.991 13.4346 145.379 14.1225C145.878 13.4106 146.653 13.0177 147.614 13.0177C149.063 13.0177 150 13.9505 150 15.3622V15.3604Z" fill="#25224A"/>
</g>
<defs>
<clipPath id="clip0_2066_72837">
<rect width="150" height="25" fill="white"/>
</clipPath>
</defs>
</svg>
